<?xml version="1.0" encoding="utf-8"?>
<!-- Generator: Adobe Illustrator 23.0.1, SVG Export Plug-In . SVG Version: 6.00 Build 0)  -->
<svg version="1.1" id="Capa_1" xmlns="http://www.w3.org/2000/svg" xmlns:xlink="http://www.w3.org/1999/xlink" x="0px" y="0px"
	 viewBox="0 0 256 62.9" style="enable-background:new 0 0 256 62.9;" xml:space="preserve">
<style type="text/css">
	.st0{fill:#FFFFFF;}
</style>
<g>
	<g>
		<path class="st0" d="M223.9,0C206.3,0,192,14.3,192,32s14.3,32,31.9,32c17.7,0,32.1-14.4,32.1-32S241.7,0,223.9,0z"/>
		<path class="st0" d="M127.9,0C110.3,0,96,14.3,96,32s14.3,32,31.9,32c17.7,0,32.1-14.4,32.1-32S145.7,0,127.9,0z"/>
		<path class="st0" d="M32,0C14.3,0,0,14.3,0,32s14.3,32,32,32c17.7,0,32-14.4,32-32S49.7,0,32,0z"/>
	</g>
</g>
</svg>
